<svg xmlns="http://www.w3.org/2000/svg" viewBox="0 0 331.65 64.82"><defs><style>.cls-1,.cls-4{fill:#f1c330;}.cls-2{fill:#2f5072;}.cls-3{fill:none;stroke:#2f5072;stroke-width:1.4px;}.cls-3,.cls-4{stroke-miterlimit:10;}.cls-4{stroke:#f1c330;}</style></defs><title>Recurso 4</title><g id="Capa_2" data-name="Capa 2"><g id="Capa_1-2" data-name="Capa 1"><path class="cls-1" d="M50.46,14.41a5.17,5.17,0,0,1-2.34,1.67,9.56,9.56,0,0,1-3.41.57,6.7,6.7,0,0,1-3.46-.89,5.86,5.86,0,0,1-2.33-2.54,8.81,8.81,0,0,1-.85-3.86V8.14a8.21,8.21,0,0,1,1.69-5.51,5.85,5.85,0,0,1,4.72-2,6.21,6.21,0,0,1,4.13,1.29,5.58,5.58,0,0,1,1.84,3.71H47.79a3,3,0,0,0-3.26-2.82,3.2,3.2,0,0,0-2.76,1.31,6.63,6.63,0,0,0-1,3.85V9.17a6.32,6.32,0,0,0,1.06,3.92,3.52,3.52,0,0,0,3,1.4,3.92,3.92,0,0,0,2.95-.94V10.5H44.55V8.44h5.91Z"/><path class="cls-1" d="M60.1,16.43a4.32,4.32,0,0,1-.3-1.08,4.35,4.35,0,0,1-5.88.3,3.16,3.16,0,0,1-1.11-2.46,3.29,3.29,0,0,1,1.38-2.84,6.65,6.65,0,0,1,3.93-1h1.59V8.6a2,2,0,0,0-.5-1.44,2,2,0,0,0-1.53-.54,2.24,2.24,0,0,0-1.45.45,1.36,1.36,0,0,0-.57,1.13h-2.6a2.92,2.92,0,0,1,.63-1.79,4.25,4.25,0,0,1,1.72-1.3,6.07,6.07,0,0,1,2.42-.47,4.79,4.79,0,0,1,3.24,1,3.61,3.61,0,0,1,1.24,2.87v5.22a5.94,5.94,0,0,0,.44,2.49v.18Zm-2.86-1.87a2.92,2.92,0,0,0,1.45-.37,2.42,2.42,0,0,0,1-1V11h-1.4a3.89,3.89,0,0,0-2.17.5,1.65,1.65,0,0,0-.73,1.42,1.55,1.55,0,0,0,.5,1.2A2,2,0,0,0,57.24,14.56Z"/><path class="cls-1" d="M71.53,13.29A1.17,1.17,0,0,0,71,12.23a6,6,0,0,0-1.9-.64,9.74,9.74,0,0,1-2.21-.71,3,3,0,0,1-2-2.73,3.06,3.06,0,0,1,1.27-2.5,5,5,0,0,1,3.21-1,5.21,5.21,0,0,1,3.35,1A3.27,3.27,0,0,1,74,8.33H71.4a1.61,1.61,0,0,0-.56-1.24,2.13,2.13,0,0,0-1.47-.5A2.26,2.26,0,0,0,68,7a1.24,1.24,0,0,0-.54,1.06,1.06,1.06,0,0,0,.5.93,7.14,7.14,0,0,0,2,.67,9.51,9.51,0,0,1,2.41.8,3.34,3.34,0,0,1,1.29,1.12,2.84,2.84,0,0,1,.42,1.58,3,3,0,0,1-1.29,2.53,5.48,5.48,0,0,1-3.39,1,5.88,5.88,0,0,1-2.54-.52,4.12,4.12,0,0,1-1.73-1.41,3.28,3.28,0,0,1-.62-1.93H67a1.83,1.83,0,0,0,.7,1.41,3.22,3.22,0,0,0,3.26.11A1.2,1.2,0,0,0,71.53,13.29Z"/><path class="cls-1" d="M79.61,2V4.86h2V6.78h-2v6.47a1.37,1.37,0,0,0,.26.95,1.18,1.18,0,0,0,.93.3,4,4,0,0,0,.91-.11v2a6.15,6.15,0,0,1-1.71.25q-3,0-3-3.31V6.78H75.1V4.86H77V2Z"/><path class="cls-1" d="M82.83,10.54a6.85,6.85,0,0,1,.67-3.07,4.92,4.92,0,0,1,1.89-2.09,5.36,5.36,0,0,1,2.81-.74A5.07,5.07,0,0,1,92,6.15a6,6,0,0,1,1.58,4v.61a6.85,6.85,0,0,1-.66,3.06,4.9,4.9,0,0,1-1.88,2.09,5.4,5.4,0,0,1-2.83.74A5,5,0,0,1,84.3,15a6.26,6.26,0,0,1-1.47-4.35Zm2.6.22a4.66,4.66,0,0,0,.73,2.8,2.59,2.59,0,0,0,4.11,0,5.17,5.17,0,0,0,.73-3,4.61,4.61,0,0,0-.75-2.78,2.55,2.55,0,0,0-4.08,0A5.06,5.06,0,0,0,85.43,10.76Z"/><path class="cls-1" d="M105,.86,109.5,12.8,114,.86h3.5V16.43h-2.69V11.3l.26-6.87-4.6,12h-1.93l-4.6-12,.27,6.86v5.13H101.5V.86Z"/><path class="cls-1" d="M127.44,15.3a4,4,0,0,1-3.25,1.35,3.59,3.59,0,0,1-2.85-1.1,4.68,4.68,0,0,1-1-3.19V4.86H123v7.47c0,1.47.61,2.2,1.83,2.2a2.57,2.57,0,0,0,2.56-1.36V4.86H130V16.43h-2.45Z"/><path class="cls-1" d="M135,4.86l.07,1.34a4.16,4.16,0,0,1,3.37-1.56q3.61,0,3.68,4.14v7.65h-2.6V8.93a2.39,2.39,0,0,0-.47-1.63,2,2,0,0,0-1.56-.53,2.5,2.5,0,0,0-2.34,1.43v8.23h-2.6V4.86Z"/><path class="cls-1" d="M144.8,1.85a1.33,1.33,0,0,1,.38-1,1.4,1.4,0,0,1,1.08-.4,1.46,1.46,0,0,1,1.1.4,1.37,1.37,0,0,1,.38,1,1.37,1.37,0,0,1-.38,1,1.49,1.49,0,0,1-1.1.39,1.43,1.43,0,0,1-1.08-.39A1.33,1.33,0,0,1,144.8,1.85Zm2.76,14.58H145V4.86h2.6Z"/><path class="cls-1" d="M155.14,14.57a2.4,2.4,0,0,0,1.62-.56,1.91,1.91,0,0,0,.68-1.41h2.46a3.85,3.85,0,0,1-.68,2,4.33,4.33,0,0,1-1.71,1.48,5.41,5.41,0,0,1-6.19-1,6.29,6.29,0,0,1-1.42-4.35v-.27a6.14,6.14,0,0,1,1.41-4.23,4.91,4.91,0,0,1,3.86-1.59,4.73,4.73,0,0,1,3.36,1.21A4.32,4.32,0,0,1,159.9,9h-2.46a2.37,2.37,0,0,0-.67-1.64,2.2,2.2,0,0,0-1.63-.64,2.29,2.29,0,0,0-1.94.91,4.68,4.68,0,0,0-.7,2.78v.42a4.79,4.79,0,0,0,.68,2.81A2.3,2.3,0,0,0,155.14,14.57Z"/><path class="cls-1" d="M161.86,1.85a1.37,1.37,0,0,1,.38-1,1.69,1.69,0,0,1,2.18,0,1.34,1.34,0,0,1,.39,1,1.33,1.33,0,0,1-.39,1,1.72,1.72,0,0,1-2.18,0A1.37,1.37,0,0,1,161.86,1.85Zm2.76,14.58H162V4.86h2.6Z"/><path class="cls-1" d="M177.59,10.76a6.87,6.87,0,0,1-1.22,4.29,3.89,3.89,0,0,1-3.27,1.6,3.94,3.94,0,0,1-3-1.25v5.49h-2.6v-16h2.4L170,6a3.85,3.85,0,0,1,3.12-1.39,4,4,0,0,1,3.32,1.58,7.08,7.08,0,0,1,1.2,4.38ZM175,10.54a4.83,4.83,0,0,0-.69-2.75,2.24,2.24,0,0,0-2-1,2.39,2.39,0,0,0-2.29,1.32v5.13a2.41,2.41,0,0,0,2.31,1.35,2.23,2.23,0,0,0,1.94-1A5.28,5.28,0,0,0,175,10.54Z"/><path class="cls-1" d="M186.71,16.43a3.6,3.6,0,0,1-.3-1.08,4,4,0,0,1-3,1.3,4.08,4.08,0,0,1-2.85-1,3.19,3.19,0,0,1-1.1-2.46,3.29,3.29,0,0,1,1.38-2.84,6.63,6.63,0,0,1,3.93-1h1.59V8.6a2,2,0,0,0-.5-1.44,2,2,0,0,0-1.53-.54,2.24,2.24,0,0,0-1.45.45,1.36,1.36,0,0,0-.57,1.13h-2.6a2.92,2.92,0,0,1,.63-1.79A4.25,4.25,0,0,1,182,5.11a6.07,6.07,0,0,1,2.42-.47,4.79,4.79,0,0,1,3.24,1,3.61,3.61,0,0,1,1.24,2.87v5.22a5.94,5.94,0,0,0,.44,2.49v.18Zm-2.86-1.87a2.92,2.92,0,0,0,1.45-.37,2.54,2.54,0,0,0,1-1V11h-1.4a3.87,3.87,0,0,0-2.17.5,1.62,1.62,0,0,0-.73,1.42,1.55,1.55,0,0,0,.5,1.2A2,2,0,0,0,183.85,14.56Z"/><path class="cls-1" d="M194.41,16.43h-2.6V0h2.6Z"/><path class="cls-2" d="M35.13,9.36H18.42V53.57H16.71V9.36H0V7.66H35.13Z"/><path class="cls-2" d="M42.88,25.41,41,25.24a8.66,8.66,0,0,0-6.24,2.42,12,12,0,0,0-3.3,6.77V53.57H30V24.33h1.46v6.08A10.71,10.71,0,0,1,35,25.57a9.69,9.69,0,0,1,6-1.79,5.88,5.88,0,0,1,2.06.31Z"/><path class="cls-2" d="M66.31,53.57a20.31,20.31,0,0,1-.54-5.35A11.69,11.69,0,0,1,61,52.57a14.59,14.59,0,0,1-6.78,1.54,9.44,9.44,0,0,1-6.53-2.2,7.33,7.33,0,0,1-2.48-5.74,7.42,7.42,0,0,1,3.64-6.45q3.63-2.41,9.66-2.47h7.22V33a7.18,7.18,0,0,0-2.31-5.7q-2.31-2-6.61-2a10.66,10.66,0,0,0-6.68,2.06,6.19,6.19,0,0,0-2.67,5.08L46,32.33a7.49,7.49,0,0,1,3.13-6.06,12,12,0,0,1,7.68-2.49,11.19,11.19,0,0,1,7.51,2.37,8.47,8.47,0,0,1,2.87,6.66v14q0,4.82.76,6.54v.24Zm-12.05-.92a13.16,13.16,0,0,0,7.06-1.83,11.37,11.37,0,0,0,4.45-5.17V38.71H59q-6.27,0-9.59,2.48a6.1,6.1,0,0,0-2.71,5.06,5.84,5.84,0,0,0,2.14,4.54A7.92,7.92,0,0,0,54.26,52.65Z"/><path class="cls-2" d="M78.1,31.14a12.2,12.2,0,0,1,4.21-5.38,10.41,10.41,0,0,1,6.17-2q4.69,0,7,2.67t2.31,8V53.57H96.31V34.45q0-4.7-1.91-7c-1.27-1.5-3.27-2.26-6-2.26a9.11,9.11,0,0,0-6.55,2.69,13.54,13.54,0,0,0-3.74,6.93V53.57H76.64V24.33H78.1Z"/><path class="cls-2" d="M125,46.41q0-5.32-9.08-7.24-5.48-1.17-7.6-3a6.27,6.27,0,0,1-2.14-5,6.39,6.39,0,0,1,2.72-5.29,11.3,11.3,0,0,1,7.07-2.09A12,12,0,0,1,123.53,26a7.37,7.37,0,0,1,2.87,6.1h-1.49a6,6,0,0,0-2.48-4.92,10.11,10.11,0,0,0-6.49-2,9.91,9.91,0,0,0-6.08,1.68,5.39,5.39,0,0,0-1.41,7.28,7.2,7.2,0,0,0,2.73,2A27.59,27.59,0,0,0,116.7,38a23.19,23.19,0,0,1,5.73,2,7.76,7.76,0,0,1,3,2.69,7.17,7.17,0,0,1,1,3.8A6.6,6.6,0,0,1,123.59,52a12.12,12.12,0,0,1-7.43,2.11,13,13,0,0,1-7.94-2.23,6.83,6.83,0,0,1-3-5.74h1.46a6.07,6.07,0,0,0,2.71,4.8,11.86,11.86,0,0,0,6.78,1.71,10.34,10.34,0,0,0,6.36-1.82A5.39,5.39,0,0,0,125,46.41Z"/><path class="cls-2" d="M156.84,39.22q0,6.84-3,10.87a9.42,9.42,0,0,1-8,4,12.66,12.66,0,0,1-5.92-1.35A10.07,10.07,0,0,1,135.89,49V64.82h-1.46V24.33h1.46v5.21A10.77,10.77,0,0,1,140,25.27a11.45,11.45,0,0,1,5.84-1.49,9.55,9.55,0,0,1,8.08,3.94q2.94,3.93,3,11Zm-1.49-.57q0-6.3-2.5-9.85a8.1,8.1,0,0,0-7-3.56,10.18,10.18,0,0,0-6.25,1.91,10.51,10.51,0,0,0-3.7,5.47V46.3A9.24,9.24,0,0,0,139.6,51a11.39,11.39,0,0,0,6.29,1.66,8,8,0,0,0,7-3.56Q155.35,45.52,155.35,38.65Z"/><path class="cls-2" d="M229.29,25.41l-1.89-.17a8.64,8.64,0,0,0-6.24,2.42,12,12,0,0,0-3.3,6.77V53.57H216.4V24.33h1.46v6.08a10.71,10.71,0,0,1,3.57-4.84,9.65,9.65,0,0,1,6-1.79,5.78,5.78,0,0,1,2,.31Z"/><path class="cls-2" d="M244.92,54.11a11.76,11.76,0,0,1-6.5-1.9A13.09,13.09,0,0,1,233.78,47a16.15,16.15,0,0,1-1.68-7.38V38.38A16.82,16.82,0,0,1,233.73,31a12.79,12.79,0,0,1,4.46-5.27,10.94,10.94,0,0,1,6.19-1.9,10.26,10.26,0,0,1,8,3.49,13.28,13.28,0,0,1,3.11,9.16V38H233.56v1.59a14.66,14.66,0,0,0,1.5,6.59,11.77,11.77,0,0,0,4.14,4.77,10.24,10.24,0,0,0,5.72,1.72,11.54,11.54,0,0,0,5-1,10.12,10.12,0,0,0,3.66-3l1,.73Q251.35,54.12,244.92,54.11Zm-.54-28.87a9.55,9.55,0,0,0-7.25,3.18,13.61,13.61,0,0,0-3.49,8.1H254v-.36a12.29,12.29,0,0,0-1.26-5.52,9.7,9.7,0,0,0-3.46-4A9,9,0,0,0,244.38,25.24Z"/><path class="cls-2" d="M263.76,31.14A12.2,12.2,0,0,1,268,25.76a10.41,10.41,0,0,1,6.17-2q4.69,0,7,2.67t2.31,8V53.57H282V34.45q0-4.7-1.92-7c-1.27-1.5-3.27-2.26-6-2.26a9.11,9.11,0,0,0-6.56,2.69,13.61,13.61,0,0,0-3.74,6.93V53.57H262.3V24.33h1.46Z"/><path class="cls-2" d="M295.87,16.43v7.9h6.65v1.45h-6.65V46.56a8.38,8.38,0,0,0,1,4.61,3.82,3.82,0,0,0,3.4,1.48,21.32,21.32,0,0,0,2.89-.24l.24,1.38a10.17,10.17,0,0,1-3.05.32q-3.19,0-4.57-1.77t-1.41-5.59v-21H289V24.33h5.4v-7.9Z"/><path class="cls-2" d="M320.63,54.11a11.76,11.76,0,0,1-6.5-1.9A13.09,13.09,0,0,1,309.49,47a16.27,16.27,0,0,1-1.67-7.38V38.38A17,17,0,0,1,309.44,31a12.86,12.86,0,0,1,4.46-5.27,10.94,10.94,0,0,1,6.19-1.9,10.24,10.24,0,0,1,8,3.49,13.28,13.28,0,0,1,3.11,9.16V38H309.28v1.59a14.66,14.66,0,0,0,1.5,6.59,11.82,11.82,0,0,0,4.13,4.77,10.24,10.24,0,0,0,5.72,1.72,11.54,11.54,0,0,0,5-1,10.23,10.23,0,0,0,3.67-3l1,.73Q327.06,54.12,320.63,54.11Zm-.54-28.87a9.56,9.56,0,0,0-7.25,3.18,13.54,13.54,0,0,0-3.48,8.1h20.38v-.36a12.29,12.29,0,0,0-1.26-5.52,9.7,9.7,0,0,0-3.46-4A9,9,0,0,0,320.09,25.24Z"/><line class="cls-3" x1="200.88" y1="8.47" x2="331.65" y2="8.47"/><path class="cls-4" d="M201,28.45,199.38,30c-.21.2-.29,0-.4-.12a14.8,14.8,0,0,0-5.28-4.23,14.39,14.39,0,0,0-8.46-1.12A15.76,15.76,0,0,0,176.5,29Q170.77,34.55,165,40.06a1,1,0,0,1-.59.21,2.2,2.2,0,0,1-.56-.07c-.84-.15-.85-.15-.93-1a.66.66,0,0,1,.18-.48c1.53-1.45,3.08-2.89,4.62-4.34.95-.89,1.86-1.82,2.81-2.69,2-1.85,3.95-3.78,6.08-5.48a16.94,16.94,0,0,1,11.8-3.63,17.77,17.77,0,0,1,10.67,4.09C199.75,27.22,200.33,27.83,201,28.45Z"/><path class="cls-4" d="M175.67,47.9A13.78,13.78,0,0,0,180.94,52c5.78,2.55,11.21,2,16.17-2,1.32-1,2.52-2.24,3.74-3.4,3-2.94,6.06-5.9,9.1-8.84a.71.71,0,0,1,.49-.16,6.82,6.82,0,0,1,1.1.18c.12,0,.21.16.29.26s0,.16.06.23a.92.92,0,0,1-.34,1.14c-2,1.9-4,3.84-6.05,5.75-1.82,1.73-3.63,3.48-5.52,5.14a18.19,18.19,0,0,1-19.76,3.54,16.25,16.25,0,0,1-5.4-3.55c-1.06-1.07-1-.67,0-1.66C175.1,48.41,175.37,48.18,175.67,47.9Z"/><path class="cls-2" d="M187.57,33a5.67,5.67,0,1,1-5.65,5.71A5.71,5.71,0,0,1,187.57,33Z"/></g></g></svg>